<svg version="1.1" id="Layer_1" xmlns="http://www.w3.org/2000/svg" xmlns:xlink="http://www.w3.org/1999/xlink" x="0px" y="0px"
	 width="100%" viewBox="0 0 2000 1500" enable-background="new 0 0 2000 1500" xml:space="preserve">
<path fill="#000000" opacity="1.000000" stroke="none" 
	d="
M1099.000000,1501.000000 
	C732.666748,1501.000000 366.833557,1501.000000 1.000245,1501.000000 
	C1.000164,1001.000244 1.000164,501.000519 1.000082,1.000387 
	C1.499742,1.000000 1.999483,1.000000 2.499225,1.000000 
	C668.665710,1.000000 1334.832153,1.000000 2000.999023,1.000000 
	C2000.999268,500.999390 2000.999268,1000.998779 2000.999634,1500.999023 
	C1700.500000,1501.000000 1400.000000,1501.000000 1099.000000,1501.000000 
M1244.410034,318.078186 
	C1222.958740,303.588867 1199.894287,292.244476 1175.805786,282.899261 
	C1123.092896,262.449097 1068.097290,253.469971 1011.926575,251.284683 
	C940.788391,248.517136 870.570679,255.141937 801.713562,274.018158 
	C754.216064,287.038971 708.612366,304.554688 666.633057,330.669128 
	C664.562561,331.957153 662.642212,334.674469 662.099976,337.055908 
	C651.434143,383.903473 640.974670,430.798004 630.490051,477.686768 
	C608.975952,573.900574 587.482727,670.119080 565.960632,766.331116 
	C545.128357,859.459534 524.351990,952.600647 503.360931,1045.693237 
	C498.726807,1066.244995 496.940643,1086.851929 500.498352,1107.648926 
	C506.270264,1141.389893 524.822876,1167.390503 551.225525,1188.058105 
	C594.118469,1221.634033 643.664795,1239.278076 697.024902,1246.905396 
	C740.489868,1253.118286 784.039551,1253.039673 827.451172,1246.007080 
	C873.501770,1238.547119 916.389160,1222.483398 955.427856,1196.922241 
	C964.626770,1190.899048 972.376709,1182.579346 980.444275,1174.947144 
	C984.425293,1171.181030 986.909607,1166.552612 982.747559,1160.988892 
	C981.707275,1159.598267 981.254028,1157.626343 980.948730,1155.849731 
	C976.923523,1132.426880 972.667603,1109.037476 969.119324,1085.541382 
	C967.013855,1071.599487 966.053528,1057.484497 964.559143,1043.264526 
	C963.018188,1043.137085 961.718933,1043.023315 960.418640,1042.922852 
	C928.143616,1040.430542 896.275513,1035.750732 865.583008,1024.953369 
	C853.308472,1020.635132 841.262695,1015.742676 831.819519,1006.329651 
	C820.881592,995.426758 820.850891,980.379700 831.658691,968.741882 
	C848.996643,981.705078 868.230286,991.062195 888.988342,997.025024 
	C939.431091,1011.515015 990.577026,1014.155212 1042.214722,1004.682617 
	C1071.988281,999.220825 1100.587524,990.244202 1126.538086,974.107605 
	C1129.462280,972.289246 1132.361938,970.431213 1135.159180,968.663513 
	C1147.770020,979.543396 1148.224487,993.645630 1135.954224,1004.102905 
	C1130.448975,1008.794678 1124.102539,1012.736633 1117.628052,1016.010559 
	C1096.558716,1026.664795 1074.145874,1033.416016 1050.833862,1036.917114 
	C1039.208130,1038.663086 1027.443237,1039.483032 1015.640381,1040.732544 
	C1015.767273,1041.851562 1015.844177,1043.183105 1016.077087,1044.486816 
	C1021.284790,1073.637817 1026.638428,1102.763306 1031.697388,1131.939941 
	C1037.494019,1165.371460 1055.334961,1190.771973 1083.062744,1209.575928 
	C1109.193848,1227.296997 1138.415649,1237.440918 1169.051636,1243.986816 
	C1199.722412,1250.540161 1230.803101,1251.587524 1262.014160,1251.007568 
	C1302.000732,1250.264282 1341.317017,1245.082520 1379.518433,1232.907593 
	C1427.249512,1217.695557 1468.231201,1192.232422 1499.703979,1152.659912 
	C1501.028198,1150.994751 1501.970703,1148.042480 1501.497681,1146.072510 
	C1481.274902,1061.863525 1460.863525,977.699951 1440.491699,893.526855 
	C1411.321411,773.000610 1382.161987,652.471802 1353.002441,531.942993 
	C1345.262939,499.952362 1337.784302,467.896179 1329.753174,435.979004 
	C1317.090088,385.652222 1287.333862,347.496307 1244.410034,318.078186 
z"/>
<path fill="#FFFFFF" opacity="1.000000" stroke="none" 
	d="
M1244.699951,318.290588 
	C1287.333862,347.496307 1317.090088,385.652222 1329.753174,435.979004 
	C1337.784302,467.896179 1345.262939,499.952362 1353.002441,531.942993 
	C1382.161987,652.471802 1411.321411,773.000610 1440.491699,893.526855 
	C1460.863525,977.699951 1481.274902,1061.863525 1501.497681,1146.072510 
	C1501.970703,1148.042480 1501.028198,1150.994751 1499.703979,1152.659912 
	C1468.231201,1192.232422 1427.249512,1217.695557 1379.518433,1232.907593 
	C1341.317017,1245.082520 1302.000732,1250.264282 1262.014160,1251.007568 
	C1230.803101,1251.587524 1199.722412,1250.540161 1169.051636,1243.986816 
	C1138.415649,1237.440918 1109.193848,1227.296997 1083.062744,1209.575928 
	C1055.334961,1190.771973 1037.494019,1165.371460 1031.697388,1131.939941 
	C1026.638428,1102.763306 1021.284790,1073.637817 1016.077087,1044.486816 
	C1015.844177,1043.183105 1015.767273,1041.851562 1015.640381,1040.732544 
	C1027.443237,1039.483032 1039.208130,1038.663086 1050.833862,1036.917114 
	C1074.145874,1033.416016 1096.558716,1026.664795 1117.628052,1016.010559 
	C1124.102539,1012.736633 1130.448975,1008.794678 1135.954224,1004.102905 
	C1148.224487,993.645630 1147.770020,979.543396 1135.159180,968.663513 
	C1132.361938,970.431213 1129.462280,972.289246 1126.538086,974.107605 
	C1100.587524,990.244202 1071.988281,999.220825 1042.214722,1004.682617 
	C990.577026,1014.155212 939.431091,1011.515015 888.988342,997.025024 
	C868.230286,991.062195 848.996643,981.705078 831.658691,968.741882 
	C820.850891,980.379700 820.881592,995.426758 831.819519,1006.329651 
	C841.262695,1015.742676 853.308472,1020.635132 865.583008,1024.953369 
	C896.275513,1035.750732 928.143616,1040.430542 960.418640,1042.922852 
	C961.718933,1043.023315 963.018188,1043.137085 964.559143,1043.264526 
	C966.053528,1057.484497 967.013855,1071.599487 969.119324,1085.541382 
	C972.667603,1109.037476 976.923523,1132.426880 980.948730,1155.849731 
	C981.254028,1157.626343 981.707275,1159.598267 982.747559,1160.988892 
	C986.909607,1166.552612 984.425293,1171.181030 980.444275,1174.947144 
	C972.376709,1182.579346 964.626770,1190.899048 955.427856,1196.922241 
	C916.389160,1222.483398 873.501770,1238.547119 827.451172,1246.007080 
	C784.039551,1253.039673 740.489868,1253.118286 697.024902,1246.905396 
	C643.664795,1239.278076 594.118469,1221.634033 551.225525,1188.058105 
	C524.822876,1167.390503 506.270264,1141.389893 500.498352,1107.648926 
	C496.940643,1086.851929 498.726807,1066.244995 503.360931,1045.693237 
	C524.351990,952.600647 545.128357,859.459534 565.960632,766.331116 
	C587.482727,670.119080 608.975952,573.900574 630.490051,477.686768 
	C640.974670,430.798004 651.434143,383.903473 662.099976,337.055908 
	C662.642212,334.674469 664.562561,331.957153 666.633057,330.669128 
	C708.612366,304.554688 754.216064,287.038971 801.713562,274.018158 
	C870.570679,255.141937 940.788391,248.517136 1011.926575,251.284683 
	C1068.097290,253.469971 1123.092896,262.449097 1175.805786,282.899261 
	C1199.894287,292.244476 1222.958740,303.588867 1244.699951,318.290588 
M1018.077087,725.307739 
	C1014.441956,705.009766 1011.054688,684.663269 1007.099243,664.427917 
	C1003.434326,645.679321 1000.007141,626.816528 994.939148,608.427429 
	C988.859924,586.369629 971.147339,579.469360 951.964539,590.497864 
	C951.999573,591.072388 951.968811,591.736938 952.089111,592.372986 
	C961.262878,640.899048 970.517822,689.410095 979.516846,737.968506 
	C980.339417,742.406799 982.486694,744.816772 986.331665,746.166199 
	C997.402344,750.051575 1008.255920,749.188293 1018.745911,744.151306 
	C1019.798218,743.645935 1020.848450,741.596924 1020.704285,740.409424 
	C1020.124023,735.630737 1019.074097,730.909119 1018.077087,725.307739 
z"/>
<path fill="#020202" opacity="1.000000" stroke="none" 
	d="
M1018.137390,725.737061 
	C1019.074097,730.909119 1020.124023,735.630737 1020.704285,740.409424 
	C1020.848450,741.596924 1019.798218,743.645935 1018.745911,744.151306 
	C1008.255920,749.188293 997.402344,750.051575 986.331665,746.166199 
	C982.486694,744.816772 980.339417,742.406799 979.516846,737.968506 
	C970.517822,689.410095 961.262878,640.899048 952.089111,592.372986 
	C951.968811,591.736938 951.999573,591.072388 951.964539,590.497864 
	C971.147339,579.469360 988.859924,586.369629 994.939148,608.427429 
	C1000.007141,626.816528 1003.434326,645.679321 1007.099243,664.427917 
	C1011.054688,684.663269 1014.441956,705.009766 1018.137390,725.737061 
z"/>
</svg>